<svg xmlns="http://www.w3.org/2000/svg" xmlns:xlink="http://www.w3.org/1999/xlink" width="1440" height="1416" viewBox="0 0 1440 1416">
  <defs>
    <clipPath id="clip-path">
      <rect id="長方形_23_のコピー" data-name="長方形 23 のコピー" width="1440" height="1416" transform="translate(0 1318)" fill="#ebf0f3"/>
    </clipPath>
  </defs>
  <g id="Clip" transform="translate(0 -1318)" clip-path="url(#clip-path)">
    <path id="パス_10" data-name="パス 10" d="M-454.35,0h-10.5l-42.6-85.8h-119.4L-668.55,0h-10.5l112.2-230.4Zm-56.7-94.5-56.4-114.3-55.2,114.3Zm96-130.5h9.6q23.7,0,34.8,10.95t11.1,32.25a43.038,43.038,0,0,1-7.2,23.55q-7.2,11.25-17.4,15.15,25.8,4.2,39.9,21.6t14.1,45.6q0,22.5-9.9,39.75A69,69,0,0,1-367.2-9.45,78.288,78.288,0,0,1-405.45,0h-9.6Zm12,79.2a32.1,32.1,0,0,0,24.3-10.5q9.9-10.5,9.9-25.8,0-17.1-8.25-25.8t-25.95-8.7h-2.4v70.8Zm0,137.4a61.683,61.683,0,0,0,32.1-8.55,61.59,61.59,0,0,0,22.8-23.85q8.4-15.3,8.4-34.5,0-30.9-16.35-46.65t-46.95-15.75h-2.4V-8.4ZM-177.75,6a110.151,110.151,0,0,1-58.5-16.5A121.687,121.687,0,0,1-279-54.45a116.509,116.509,0,0,1-15.75-58.95,113.523,113.523,0,0,1,15.9-58.35,120.026,120.026,0,0,1,42.9-43.2A112.466,112.466,0,0,1-177.45-231a112.238,112.238,0,0,1,58.5,15.9A118.4,118.4,0,0,1-76.5-172.05,114.9,114.9,0,0,1-60.75-113.4,118.182,118.182,0,0,1-76.5-53.55a118.51,118.51,0,0,1-42.6,43.5A112.222,112.222,0,0,1-177.75,6Zm0-8.7a101.463,101.463,0,0,0,53.4-14.85A110.2,110.2,0,0,0-85.2-57.75,108.7,108.7,0,0,0-70.65-112.8a108.193,108.193,0,0,0-14.4-54.6,109.364,109.364,0,0,0-39-40.05,101.463,101.463,0,0,0-53.4-14.85,102,102,0,0,0-53.7,14.85A110.552,110.552,0,0,0-270.3-167.4a107.331,107.331,0,0,0-14.55,54.6A108.7,108.7,0,0,0-270.3-57.75a110.2,110.2,0,0,0,39.15,40.2A101.463,101.463,0,0,0-177.75-2.7ZM50.55,6q-19.5,0-34.8-8.25a59.759,59.759,0,0,1-24-23.55q-8.7-15.3-8.7-35.7V-225h9.9V-61.8q0,18,7.5,31.35A52.076,52.076,0,0,0,21-9.9,59.526,59.526,0,0,0,50.25-2.7,60.538,60.538,0,0,0,79.5-9.75a50.1,50.1,0,0,0,20.4-20.4q7.35-13.35,7.35-31.65V-225h9.9V-62.1q0,20.7-8.4,36.15A57.821,57.821,0,0,1,85.2-2.25Q70.05,6,50.55,6Zm154.5-222.3h-51.9V-225h113.1v8.7h-51.3V0h-9.9ZM441.75,6q-19.5,0-34.8-8.25a59.759,59.759,0,0,1-24-23.55q-8.7-15.3-8.7-35.7V-225h9.9V-61.8q0,18,7.5,31.35A52.077,52.077,0,0,0,412.2-9.9a59.526,59.526,0,0,0,29.25,7.2A60.538,60.538,0,0,0,470.7-9.75a50.1,50.1,0,0,0,20.4-20.4q7.35-13.35,7.35-31.65V-225h9.9V-62.1q0,20.7-8.4,36.15A57.821,57.821,0,0,1,476.4-2.25Q461.25,6,441.75,6Zm167.1-1.8q-37.5,0-58.2-30.9V-42.9A64.737,64.737,0,0,0,574.2-14.7Q589.65-4.5,611.25-4.5A59.466,59.466,0,0,0,639-11.1a51.152,51.152,0,0,0,20.25-18.6q7.5-12,7.5-27.6,0-14.1-4.8-24.3t-15.9-19.65q-11.1-9.45-32.1-22.35l-9.6-6a239.773,239.773,0,0,1-21.3-14.4,70.239,70.239,0,0,1-14.1-14.7,47.539,47.539,0,0,1-7.8-27q0-20.4,13.2-31.8t33.6-11.4q27.6,0,43.8,20.4v15.3a51.429,51.429,0,0,0-18.9-19.8,50.352,50.352,0,0,0-26.4-7.2q-15,0-25.2,9.3T571.05-186q0,15.3,9.45,26.25t31.95,23.85q27.6,16.2,42.9,29.4A61.575,61.575,0,0,1,671.1-84.6a69.4,69.4,0,0,1,4.95,26.7q0,18.6-8.7,32.7a58.091,58.091,0,0,1-24,21.75Q628.05,4.2,608.85,4.2Z" transform="translate(725.332 2794.406)" fill="#fff"/>
  </g>
</svg>
