<?xml version="1.0" encoding="UTF-8"?>
<svg width="60px" height="60px" viewBox="0 0 60 60" version="1.1" xmlns="http://www.w3.org/2000/svg" xmlns:xlink="http://www.w3.org/1999/xlink">
    <title>Group 13</title>
    <g id="flow" stroke="none" stroke-width="1" fill="none" fill-rule="evenodd">
        <g id="meguribito_flow" transform="translate(-763.000000, -613.000000)">
            <g id="Group-22" transform="translate(120.000000, 465.000000)">
                <g id="Group-13" transform="translate(630.000000, 137.000000)">
                    <g id="Group-13" transform="translate(13.000000, 11.000000)">
                        <ellipse id="Oval" fill="#F9F6F3" cx="29.7174374" cy="29.6704016" rx="29.7174374" ry="29.6704016"></ellipse>
                        <g id="heart" transform="translate(18.171429, 15.428571)" fill="#4D4327" fill-rule="nonzero">
                            <g id="press-button">
                                <path d="M5.20934161,9.42857143 C5.0169441,8.76823905 4.83219876,8.10679872 4.69336646,7.47305691 C3.78057143,6.92573443 3.15965217,5.92969616 3.15965217,4.77854625 C3.15965217,3.04683566 4.54906832,1.63975155 6.25659627,1.63975155 C7.96412422,1.63975155 9.35354037,3.0479436 9.35354037,4.77854625 C9.35354037,5.0167534 9.32183851,5.24609703 9.27264596,5.46879302 C9.56889441,6.13023334 9.80829814,6.87476918 10.0181863,7.63149236 C10.6084969,6.83377539 10.9714286,5.85324828 10.9714286,4.77854625 C10.9714286,2.13832466 8.86161491,0 6.25659627,0 C3.65157764,0 1.54285714,2.13832466 1.54285714,4.77854625 C1.54285714,7.05203962 3.1115528,8.94550948 5.20934161,9.42857143 Z" id="Path"></path>
                                <path d="M1.17929155,20.6224361 C2.37698843,19.3535059 3.72115811,19.8504759 5.5205202,20.1188397 C7.06637167,20.3518635 8.58856215,19.926678 8.4871579,19.108334 C8.32716453,17.7841849 8.10182175,17.1922383 7.58916692,15.4771394 C7.18016978,14.1132327 6.4038639,11.6548875 5.69741429,9.30477137 C4.75097461,6.1606075 4.47718313,4.70061992 5.73684927,4.33617521 C7.09453952,3.94853857 7.87309882,5.83923353 8.57842172,8.46102666 C9.38176873,11.4450557 9.80428645,12.7625786 10.0408964,12.6930028 C10.4577805,12.5759387 9.88766327,11.2992779 10.9783223,10.9845302 C12.3416461,10.5957891 12.6052972,11.6405306 12.9872532,11.5356147 C13.3692092,11.4229682 13.2396371,10.3649742 14.326916,10.0535396 C15.4198285,9.74431377 15.9685382,11.062941 16.4192237,10.93152 C16.8654024,10.8023078 16.855262,10.3263209 17.5290369,10.1374723 C18.2039386,9.94089304 20.7435517,11.0552103 22.1970126,15.9222037 C24.0211624,22.0415617 21.9660363,23.1790709 22.5891091,25.2508838 L14.4463477,28.2857143 C13.7872201,26.7318546 11.7456145,26.6169993 9.93949211,25.6263723 C8.11984917,24.6224928 6.88384402,22.6666395 2.14150522,22.761616 C0.357917122,22.7969561 0.442420664,21.4032312 1.17929155,20.6224361 Z" id="Path"></path>
                            </g>
                        </g>
                    </g>
                </g>
            </g>
        </g>
    </g>
</svg>