<?xml version="1.0" encoding="UTF-8"?>
<svg width="60px" height="60px" viewBox="0 0 60 60" version="1.1" xmlns="http://www.w3.org/2000/svg" xmlns:xlink="http://www.w3.org/1999/xlink">
    <title>eyecatch</title>
    <g id="flow" stroke="none" stroke-width="1" fill="none" fill-rule="evenodd">
        <g id="meguribito_flow" transform="translate(-136.000000, -3108.000000)">
            <g id="Group-30" transform="translate(1.000000, 16.000000)">
                <g id="Group" transform="translate(119.000000, 3080.000000)">
                    <g id="Group-5" transform="translate(16.000000, 10.000000)">
                        <g id="eyecatch" transform="translate(0.000000, 2.000000)">
                            <ellipse id="Oval" fill="#F9F6F3" cx="29.7174374" cy="29.6704016" rx="29.7174374" ry="29.6704016"></ellipse>
                            <g id="finish" transform="translate(17.250000, 15.750000)" fill="#4D4327" fill-rule="nonzero">
                                <path d="M6.64306034,28.1802737 L7.1263319,28.045222 C7.59117387,27.9152886 7.86268884,27.4331468 7.73279741,26.9682931 L2.20748922,7.19534483 C2.12952132,6.91629968 1.94389348,6.67965769 1.69144392,6.53748032 C1.43899437,6.39530289 1.14040371,6.3592372 0.861362069,6.43721767 L0.798950431,6.45464224 C0.217841595,6.61700456 -0.121622541,7.21970383 0.0407327586,7.80081466 L5.56617672,27.5737629 C5.6960696,28.0386171 6.1782043,28.3101597 6.64306034,28.1802737 L6.64306034,28.1802737 Z" id="Shape"></path>
                                <path d="M26.1006466,14.3625 C24.3484496,13.4888108 22.7274815,12.3736335 21.2851293,11.049569 C21.1638876,10.9385853 21.1164677,10.7682248 21.162931,10.6105603 C21.8775981,7.9068952 22.4083384,5.15793287 22.7515086,2.3825431 C22.805819,1.92090517 22.5568966,1.78512931 22.2943966,2.10193966 C17.1439655,8.26163793 8.2325431,0.975 2.92823276,6.57349138 C2.99191564,6.69272427 3.04201375,6.81872861 3.07758621,6.94913793 L6.66206897,19.7844828 C11.975431,14.2538793 20.8551724,21.4952586 25.9965517,15.3491379 C26.2590517,15.0323276 26.3088362,14.4530172 26.1006466,14.3625 Z" id="Shape"></path>
                            </g>
                        </g>
                    </g>
                </g>
            </g>
        </g>
    </g>
</svg>