<?xml version="1.0" encoding="UTF-8"?>
<svg width="60px" height="60px" viewBox="0 0 60 60" version="1.1" xmlns="http://www.w3.org/2000/svg" xmlns:xlink="http://www.w3.org/1999/xlink">
    <title>eyecatch</title>
    <g id="flow" stroke="none" stroke-width="1" fill="none" fill-rule="evenodd">
        <g id="meguribito_flow" transform="translate(-136.000000, -613.000000)">
            <g id="Group-22" transform="translate(120.000000, 465.000000)">
                <g id="Group-17" transform="translate(0.000000, 137.000000)">
                    <g id="Group-10" transform="translate(16.000000, 11.000000)">
                        <ellipse id="Oval" fill="#F9F6F3" cx="29.7174374" cy="29.6704016" rx="29.7174374" ry="29.6704016"></ellipse>
                        <g id="heart" transform="translate(15.600000, 18.000000)" fill="#4D4327" fill-rule="nonzero">
                            <path d="M20.4041171,0.0322441237 C19.0612652,0.0322441237 17.777854,0.340077526 16.589572,0.947252784 C15.7806779,1.36048825 15.0376379,1.90952907 14.4,2.56094351 C13.7623621,1.90952907 13.0193221,1.36048825 12.210428,0.947252784 C11.0220866,0.340077526 9.73867546,0.0322441237 8.39582351,0.0322441237 C3.7663868,0.0322441237 0,3.79863093 0,8.42812701 C0,11.7071109 1.73174103,15.1896544 5.14706474,18.7791439 C7.99868041,21.7761847 11.489953,24.2744808 13.9165757,25.8425666 L14.4,26.1549724 L14.8834243,25.8425666 C17.310047,24.2745402 20.8013196,21.7761847 23.6529353,18.7791439 C27.068259,15.1896544 28.8,11.7071109 28.8,8.42812701 C28.8,3.79863093 25.0336132,0.0322441237 20.4041171,0.0322441237 Z" id="Path"></path>
                        </g>
                    </g>
                </g>
            </g>
        </g>
    </g>
</svg>