<?xml version="1.0" encoding="UTF-8"?>
<svg width="60px" height="60px" viewBox="0 0 60 60" version="1.1" xmlns="http://www.w3.org/2000/svg" xmlns:xlink="http://www.w3.org/1999/xlink">
    <title>eyecatch</title>
    <g id="flow" stroke="none" stroke-width="1" fill="none" fill-rule="evenodd">
        <g id="meguribito_flow" transform="translate(-137.000000, -2338.000000)">
            <g id="Group-29" transform="translate(121.000000, 2328.000000)">
                <g id="eyecatch" transform="translate(16.000000, 10.000000)">
                    <ellipse id="Oval" fill="#F9F6F3" cx="29.7174374" cy="29.6704016" rx="29.7174374" ry="29.6704016"></ellipse>
                    <g id="underground" transform="translate(17.250000, 15.750000)" fill="#4D4327" fill-rule="nonzero">
                        <path d="M23.0688286,27.3839479 L18.8994957,19.7920282 C20.0818438,19.6053416 20.9529989,18.5474512 20.9529989,17.3650542 L20.9529989,6.16386117 C20.9529989,3.17692516 18.5260738,0.75 15.5390889,0.75 L8.445,0.75 C5.45801518,0.75 2.96886117,3.17692516 2.96886117,6.22613883 L2.96886117,17.365103 C2.96886117,18.60968 3.84006508,19.6053416 5.02241323,19.792077 L0.915309111,27.3839479 C0.604164859,28.0062364 0.79085141,28.7529826 1.41313991,29.0641269 C1.59982646,29.1885846 1.78651302,29.1885846 1.97319957,29.1885846 C2.40880152,29.1885846 2.84440347,28.9396692 3.03109002,28.5662961 L3.40446312,27.9440076 L20.5796258,27.9440076 L20.9529501,28.5662961 C21.2019143,29.001898 21.5752386,29.1885846 22.0108894,29.1885846 C22.1975271,29.1885846 22.3842137,29.1264046 22.570949,29.0641269 C23.1932375,28.7529826 23.3799729,28.0062364 23.0688286,27.3839479 Z M17.2192679,21.7833514 L6.76482104,21.7833514 L7.8227115,19.854257 L16.1613774,19.854257 L17.2192679,21.7833514 Z M17.0326302,17.6140184 C16.0369685,17.6140184 15.2279447,16.8050434 15.2279447,15.809333 C15.2279447,14.8136714 16.0369197,14.0046963 17.0326302,14.0046963 C18.028243,14.0046963 18.8372668,14.8136714 18.8372668,15.809333 C18.837218,16.7428145 18.028243,17.6140184 17.0326302,17.6140184 Z M5.14687093,6.91065618 C5.14687093,4.98156182 6.70259219,3.42584056 8.5694577,3.42584056 L15.3524024,3.42584056 C17.2192679,3.42584056 18.837218,4.98156182 18.837218,6.91065618 L18.837218,9.897641 C18.837218,10.5821584 18.2771584,11.0799892 17.592641,11.0799892 L6.39144794,11.0799892 C5.70693059,11.0799892 5.20909978,10.5199295 5.20909978,9.897641 L5.14687093,6.91065618 L5.14687093,6.91065618 Z M6.95150759,13.9425163 C7.9471692,13.9425163 8.75614425,14.7514913 8.75614425,15.7472017 C8.75614425,16.7428145 7.9471692,17.5518384 6.95150759,17.5518384 C5.95584599,17.5518384 5.14687093,16.7428633 5.14687093,15.7472017 C5.14687093,14.7514913 5.95589479,13.9425163 6.95150759,13.9425163 Z M4.40017354,26.0771421 L5.76920824,23.6502169 L18.2149783,23.6502169 L19.584013,26.0771421 L4.40017354,26.0771421 Z" id="Shape"></path>
                    </g>
                </g>
            </g>
        </g>
    </g>
</svg>