<?xml version="1.0" encoding="UTF-8"?>
<svg width="60px" height="60px" viewBox="0 0 60 60" version="1.1" xmlns="http://www.w3.org/2000/svg" xmlns:xlink="http://www.w3.org/1999/xlink">
    <title>eyecatch</title>
    <g id="flow" stroke="none" stroke-width="1" fill="none" fill-rule="evenodd">
        <g id="meguribito_flow" transform="translate(-136.000000, -1426.000000)">
            <g id="Group-22" transform="translate(120.000000, 465.000000)">
                <g id="Group-19" transform="translate(0.000000, 950.000000)">
                    <g id="eyecatch" transform="translate(16.000000, 11.000000)">
                        <ellipse id="Oval" fill="#F9F6F3" cx="29.7174374" cy="29.6704016" rx="29.7174374" ry="29.6704016"></ellipse>
                        <g id="credit-card" transform="translate(13.500000, 18.000000)" fill="#4D4327" fill-rule="nonzero">
                            <path d="M26.3891789,0 L1.91362126,0 C0.845752254,0 0,0.895924527 0,1.95396873 L0,16.9628377 C0,16.9713703 0,16.9799029 0,16.9884355 C0.00854295206,18.0294145 0.871381111,18.8656107 1.91362126,18.8571429 L2.9046037,18.8571429 L2.9046037,6.59571104 C2.9046037,4.59054662 4.5448505,2.98641509 6.55244423,2.98641509 L28.2857143,2.98641509 L28.2857143,1.95396873 C28.2857143,0.895924527 27.4570479,0 26.3891789,0 Z" id="Path"></path>
                            <path d="M29.1515765,17.8354381 C28.5826946,17.3600961 27.7377378,17.4351501 27.2608809,18.0022248 C27.2190513,18.0522608 27.1772218,18.0939575 27.1353922,18.1273148 C26.7756581,18.4191915 26.2486058,18.3608162 25.955799,18.0022248 C25.7048217,17.6936694 25.3199898,17.5102041 24.9184262,17.5102041 C24.1654943,17.5102041 23.5631488,18.1106361 23.5715147,18.8611762 C23.5715147,19.603377 24.1822261,20.203809 24.9267921,20.203809 C25.3283557,20.2121483 25.7131876,20.028683 25.9641649,19.7201276 C26.1231172,19.5283229 26.3573626,19.4199116 26.6083399,19.4199116 C26.8509513,19.4115723 27.0935627,19.5199836 27.252515,19.7117883 C27.3110764,19.778503 27.3612718,19.8368783 27.4281991,19.8869143 C27.997081,20.3622564 28.8420379,20.2872023 29.3188947,19.7201276 C29.7957516,19.1530529 29.7204584,18.3107802 29.1515765,17.8354381 Z" id="Path"></path>
                            <path d="M31.058072,4.71435338 L6.6562137,4.71435338 L6.64769648,4.71435338 C5.58304297,4.70525262 4.72280294,5.6153281 4.71428571,6.7438217 L4.71428571,8.08163265 L32.9914828,8.08163265 L33,8.08163265 L33,6.7438217 C33,5.60622735 32.1227255,4.71435338 31.058072,4.71435338 Z" id="Path"></path>
                            <rect id="Rectangle" x="4.71428571" y="9.42857143" width="28.2857143" height="2.02040816"></rect>
                            <path d="M4.71428571,13.4693878 L4.71428571,21.6109478 C4.71428571,22.6896403 5.57478485,23.5628675 6.64827883,23.5714286 L31.0574871,23.5714286 C32.1309811,23.5628675 32.9914802,22.6896403 33,21.6109478 L33,13.4693878 L4.71428571,13.4693878 L4.71428571,13.4693878 Z M30.7763339,20.4380837 C29.822117,21.8506572 27.9051635,22.2273435 26.4993976,21.2685057 C25.98821,21.6195088 25.3918244,21.7992909 24.7783993,21.7992909 C23.0744406,21.7992909 21.7027539,20.4038395 21.7027539,18.7001902 C21.7027539,16.996541 23.0744406,15.6096506 24.7783993,15.6096506 C25.3918244,15.6096506 25.98821,15.7894327 26.4993976,16.1404358 C27.5473322,15.4298686 28.9104991,15.4298686 29.9499139,16.1404358 C31.3556799,17.0992736 31.7305508,19.0255102 30.7763339,20.4380837 Z" id="Shape"></path>
                        </g>
                    </g>
                </g>
            </g>
        </g>
    </g>
</svg>