<?xml version="1.0" encoding="UTF-8"?>
<svg width="60px" height="60px" viewBox="0 0 60 60" version="1.1" xmlns="http://www.w3.org/2000/svg" xmlns:xlink="http://www.w3.org/1999/xlink">
    <title>eyecatch</title>
    <defs>
        <polygon id="path-1" points="0.00666741071 8.03571429e-05 1.91154464 8.03571429e-05 1.91154464 1.00446429 0.00666741071 1.00446429"></polygon>
        <polygon id="path-3" points="1.5 27.7765625 27.7436496 27.7765625 27.7436496 1.11607145e-05 1.5 1.11607145e-05"></polygon>
    </defs>
    <g id="flow" stroke="none" stroke-width="1" fill="none" fill-rule="evenodd">
        <g id="meguribito_flow" transform="translate(-137.000000, -2032.000000)">
            <g id="Group-28" transform="translate(126.000000, 2022.000000)">
                <g id="eyecatch" transform="translate(11.000000, 10.000000)">
                    <ellipse id="Oval" fill="#F9F6F3" cx="29.7174374" cy="29.6704016" rx="29.7174374" ry="29.6704016"></ellipse>
                    <g id="Group-15" transform="translate(17.250000, 15.750000)">
                        <g id="Group-3" transform="translate(1.774554, 26.772098)">
                            <mask id="mask-2" fill="white">
                                <use xlink:href="#path-1"></use>
                            </mask>
                            <g id="Clip-2"></g>
                            <path d="M1.91154464,8.03571429e-05 L0.00666741071,8.03571429e-05 L0.00666741071,0.476296875 C0.00666741071,0.767993304 0.243140625,1.00446652 0.534837054,1.00446652 L1.383375,1.00446652 C1.67507143,1.00446652 1.91154464,0.767993304 1.91154464,0.476296875 L1.91154464,8.03571429e-05 Z" id="Fill-1" fill="#333333" mask="url(#mask-2)"></path>
                        </g>
                        <mask id="mask-4" fill="white">
                            <use xlink:href="#path-3"></use>
                        </mask>
                        <g id="Clip-5"></g>
                        <polygon id="Fill-4" fill="#4D4327" mask="url(#mask-4)" points="3.72073661 7.2344308 4.29219866 7.2344308 4.29219866 2.18196429 3.72073661 2.18196429"></polygon>
                        <path d="M10.5609676,0.355012277 L10.5609676,1.8269654 C10.5609676,2.02299219 10.4019944,2.1819654 10.2059676,2.1819654 L9.26218415,2.1819654 C9.26218415,1.83770201 8.98303237,1.55855022 8.63876897,1.55855022 L5.27926004,1.55855022 C5.10712835,1.55855022 4.95128013,1.62833817 4.83837835,1.74107254 C4.72564397,1.85398549 4.65585603,2.00983371 4.65585603,2.1819654 L3.71207254,2.1819654 C3.5160346,2.1819654 3.35707254,2.02299219 3.35707254,1.8269654 L3.35707254,0.355012277 C3.35707254,0.158985491 3.5160346,1.22767857e-05 3.71207254,1.22767857e-05 L4.30657031,1.22767857e-05 C4.47644754,1.22767857e-05 4.62450558,0.0942198661 4.70104576,0.233271205 C4.70883594,0.252847098 4.71767522,0.271887277 4.72754129,0.290425223 C4.83196094,0.48834933 5.03994085,0.623427455 5.27926004,0.623427455 L8.63876897,0.623427455 C8.87809933,0.623427455 9.08607924,0.48834933 9.19049888,0.290425223 C9.19049888,0.290246652 9.20919308,0.252668527 9.21699442,0.233271205 C9.29352344,0.0942198661 9.44159263,1.22767857e-05 9.61146987,1.22767857e-05 L10.2059676,1.22767857e-05 C10.4019944,1.22767857e-05 10.5609676,0.158985491 10.5609676,0.355012277" id="Fill-6" fill="#4D4327" mask="url(#mask-4)"></path>
                        <polygon id="Fill-7" fill="#4D4327" mask="url(#mask-4)" points="9.62584821 7.2344308 10.1973103 7.2344308 10.1973103 2.18196429 9.62584821 2.18196429"></polygon>
                        <path d="M13.1524275,26.6608761 L11.0364788,26.6608761 L11.0364788,27.1898605 C11.0364788,27.5138895 11.2991462,27.7765681 11.6231752,27.7765681 L12.565731,27.7765681 C12.8897489,27.7765681 13.1524275,27.5138895 13.1524275,27.1898605 L13.1524275,26.6608761 Z" id="Fill-8" fill="#4D4327" mask="url(#mask-4)"></path>
                        <polygon id="Fill-9" fill="#4D4327" mask="url(#mask-4)" points="15.2560937 14.2313281 15.8941295 14.2313281 15.8941295 11.3643415 15.2560937 11.3643415"></polygon>
                        <polygon id="Fill-10" fill="#4D4327" mask="url(#mask-4)" points="19.261875 14.2313281 19.8999107 14.2313281 19.8999107 11.3643415 19.261875 11.3643415"></polygon>
                        <path d="M20.1051819,10.2471607 L20.1051819,11.2751518 C20.1051819,11.4120603 19.9941663,11.5230871 19.8572578,11.5230871 L19.1981283,11.5230871 C19.1981283,11.2826518 19.003173,11.0876964 18.7627377,11.0876964 L16.4164766,11.0876964 C16.2962645,11.0876964 16.1874252,11.1364353 16.1085636,11.2151741 C16.0298359,11.2940246 15.9810859,11.402875 15.9810859,11.5230871 L15.3219676,11.5230871 C15.1850592,11.5230871 15.0740324,11.4120603 15.0740324,11.2751518 L15.0740324,10.2471607 C15.0740324,10.1102522 15.1850592,9.99922545 15.3219676,9.99922545 L15.7371574,9.99922545 C15.8557958,9.99922545 15.9592109,10.0650179 16.0126596,10.1621384 C16.018106,10.1757991 16.0242779,10.1891027 16.0311641,10.2020491 C16.1040882,10.3402857 16.2493449,10.4346161 16.4164766,10.4346161 L18.7627377,10.4346161 C18.9298806,10.4346161 19.0751261,10.3402857 19.1480502,10.2020491 C19.1480502,10.2019263 19.1611194,10.1756875 19.1665547,10.1621384 C19.2200145,10.0650179 19.3234185,9.99922545 19.4420681,9.99922545 L19.8572578,9.99922545 C19.9941663,9.99922545 20.1051819,10.1102522 20.1051819,10.2471607" id="Fill-11" fill="#4D4327" mask="url(#mask-4)"></path>
                        <path d="M23.9988984,26.6608761 L21.8829609,26.6608761 L21.8829609,27.1898605 C21.8829609,27.5138895 22.1456283,27.7765681 22.4696462,27.7765681 L23.4122132,27.7765681 C23.736231,27.7765681 23.9988984,27.5138895 23.9988984,27.1898605 L23.9988984,26.6608761 Z" id="Fill-12" fill="#4D4327" mask="url(#mask-4)"></path>
                        <path d="M5.79877567,9.35121875 C5.44491406,9.35121875 5.15805022,9.06435491 5.15805022,8.7104933 C5.15805022,8.35662054 5.44491406,8.0697567 5.79877567,8.0697567 L8.11926674,8.0697567 C8.47312835,8.0697567 8.75999219,8.35662054 8.75999219,8.7104933 C8.75999219,9.06435491 8.47312835,9.35121875 8.11926674,9.35121875 L5.79877567,9.35121875 Z M3.01938951,23.9439531 C3.01938951,24.1017545 2.8914654,24.2296786 2.73366406,24.2296786 C2.57585156,24.2296786 2.44792746,24.1017545 2.44792746,23.9439531 L2.44792746,12.0959732 C2.44792746,11.9381719 2.57585156,11.8102478 2.73366406,11.8102478 C2.8914654,11.8102478 3.01938951,11.9381719 3.01938951,12.0959732 L3.01938951,23.9439531 Z M8.29905469,25.5002589 L8.29905469,15.3919554 C8.29905469,14.4803259 9.04072879,13.7386629 9.95235826,13.7386629 L10.8986529,13.7386629 L10.8986529,12.0959732 C10.8986529,11.9381719 11.026577,11.8102478 11.1843783,11.8102478 C11.3421797,11.8102478 11.470115,11.9381719 11.470115,12.0959732 L11.470115,13.7386629 L13.9180391,13.7386629 L13.9180391,8.53404241 C13.9180391,7.81628571 13.3361752,7.23443304 12.6184297,7.23443304 L1.29961272,7.23443304 C0.581856027,7.23443304 3.34821428e-06,7.81628571 3.34821428e-06,8.53404241 L3.34821428e-06,25.4766652 C3.34821428e-06,26.1944219 0.581856027,26.7762857 1.29961272,26.7762857 L8.90222433,26.7762857 C8.53412165,26.4728036 8.29905469,26.0134732 8.29905469,25.5002589 L8.29905469,25.5002589 Z" id="Fill-13" fill="#4D4327" mask="url(#mask-4)"></path>
                        <path d="M23.2266618,24.5862254 C23.2266618,24.7440379 23.0987377,24.8719621 22.9409252,24.8719621 C22.7831239,24.8719621 22.6551998,24.7440379 22.6551998,24.5862254 L22.6551998,16.3059911 C22.6551998,16.1481786 22.7831239,16.0202545 22.9409252,16.0202545 C23.0987377,16.0202545 23.2266618,16.1481786 23.2266618,16.3059911 L23.2266618,24.5862254 Z M12.3801775,24.5862254 C12.3801775,24.7440379 12.2522533,24.8719621 12.094452,24.8719621 L12.094452,24.8719621 C11.9366507,24.8719621 11.8087154,24.7440379 11.8087154,24.5862254 L11.8087154,16.3059911 C11.8087154,16.1481786 11.9366507,16.0202545 12.094452,16.0202545 L12.094452,16.0202545 C12.2522533,16.0202545 12.3801775,16.1481786 12.3801775,16.3059911 L12.3801775,24.5862254 Z M25.0830234,14.2313259 L13.9180346,14.2313259 L11.4701105,14.2313259 L10.8986484,14.2313259 L9.95236496,14.2313259 C9.31136049,14.2313259 8.79172879,14.7509688 8.79172879,15.3919509 L8.79172879,25.5002545 C8.79172879,26.1412478 9.31136049,26.6608795 9.95236496,26.6608795 L13.1536484,26.6608795 L25.0830234,26.6608795 C25.7240279,26.6608795 26.2436373,26.1412478 26.2436373,25.5002545 L26.2436373,15.3919509 C26.2436373,14.7509688 25.7240279,14.2313259 25.0830234,14.2313259 L25.0830234,14.2313259 Z" id="Fill-14" fill="#4D4327" mask="url(#mask-4)"></path>
                    </g>
                </g>
            </g>
        </g>
    </g>
</svg>