<?xml version="1.0" encoding="UTF-8"?>
<svg width="60px" height="60px" viewBox="0 0 60 60" version="1.1" xmlns="http://www.w3.org/2000/svg" xmlns:xlink="http://www.w3.org/1999/xlink">
    <title>eyecatch</title>
    <g id="flow" stroke="none" stroke-width="1" fill="none" fill-rule="evenodd">
        <g id="meguribito_flow" transform="translate(-136.000000, -962.000000)">
            <g id="Group-22" transform="translate(120.000000, 465.000000)">
                <g id="Group-17" transform="translate(0.000000, 486.000000)">
                    <g id="eyecatch" transform="translate(16.000000, 11.000000)">
                        <ellipse id="Oval" fill="#F9F6F3" cx="29.7174374" cy="29.6704016" rx="29.7174374" ry="29.6704016"></ellipse>
                        <g id="edit" transform="translate(18.000000, 16.285714)" fill="#4D4327" fill-rule="nonzero">
                            <path d="M14.2285714,2.28571429 L12.9714286,2.28571429 C12.5942857,0.971428571 11.3828571,0 9.94285714,0 C8.50285714,0 7.29142857,0.971428571 6.91428571,2.28571429 L5.65714286,2.28571429 C5.18857143,2.28571429 4.8,2.67428571 4.8,3.14285714 L4.8,4.85714286 C4.8,5.95428571 5.70285714,6.85714286 6.8,6.85714286 L13.0857143,6.85714286 C14.1828571,6.85714286 15.0857143,5.95428571 15.0857143,4.85714286 L15.0857143,3.14285714 C15.0857143,2.67428571 14.6971429,2.28571429 14.2285714,2.28571429 Z" id="Path"></path>
                            <path d="M16.6689076,3.42857143 L16.3764706,3.42857143 L16.3764706,4.85714286 C16.3764706,6.59428571 14.9376807,8 13.1596639,8 L6.72605042,8 C4.94803361,8 3.5092437,6.59428571 3.5092437,4.85714286 L3.5092437,3.42857143 L3.21680672,3.42857143 C1.43878992,3.42857143 0,4.83428571 0,6.57142857 L0,20.8571429 C0,22.5942857 1.43878992,24 3.21680672,24 L11.8495462,24 L12.1068908,22.5942857 C12.2238655,21.9542857 12.528,21.3828571 12.9958992,20.9142857 L13.9316975,20 L4.38655462,20 C3.90695798,20 3.5092437,19.6114286 3.5092437,19.1428571 C3.5092437,18.6742857 3.90695798,18.2857143 4.38655462,18.2857143 L15.4991597,18.2857143 C15.5576471,18.2857143 15.604437,18.2857143 15.6629244,18.3085714 L15.6746218,18.3085714 L19.8857143,14.1942857 L19.8857143,6.57142857 C19.8857143,4.83428571 18.4469244,3.42857143 16.6689076,3.42857143 Z M15.4991597,16.2857143 L4.38655462,16.2857143 C3.90695798,16.2857143 3.5092437,15.8971429 3.5092437,15.4285714 C3.5092437,14.96 3.90695798,14.5714286 4.38655462,14.5714286 L15.4991597,14.5714286 C15.9787563,14.5714286 16.3764706,14.96 16.3764706,15.4285714 C16.3764706,15.8971429 15.9787563,16.2857143 15.4991597,16.2857143 Z M15.4991597,12.5714286 L4.38655462,12.5714286 C3.90695798,12.5714286 3.5092437,12.1828571 3.5092437,11.7142857 C3.5092437,11.2457143 3.90695798,10.8571429 4.38655462,10.8571429 L15.4991597,10.8571429 C15.9787563,10.8571429 16.3764706,11.2457143 16.3764706,11.7142857 C16.3764706,12.1828571 15.9787563,12.5714286 15.4991597,12.5714286 Z" id="Shape"></path>
                            <path d="M14.5554325,27.4285714 C14.3343766,27.4285714 14.1189313,27.337442 13.9607136,27.1715397 C13.7665884,26.9694193 13.6790637,26.682011 13.7273145,26.3992761 L14.3220334,22.888456 C14.3512083,22.7120388 14.4342445,22.5484731 14.5554325,22.4211256 L22.8871073,13.7474722 C23.9104726,12.6796221 24.9158842,12.9681987 25.4657186,13.5406785 L26.85377,14.9858979 C27.6201719,15.7826964 27.6201719,17.0795384 26.85377,17.8775052 L18.5220952,26.5523268 C18.4009072,26.6796744 18.2438116,26.7649622 18.0732507,26.7953387 L14.7013069,27.4145515 C14.6530561,27.4238981 14.6036832,27.4285714 14.5554325,27.4285714 L14.5554325,27.4285714 Z" id="Shape"></path>
                        </g>
                    </g>
                </g>
            </g>
        </g>
    </g>
</svg>