<?xml version="1.0" encoding="UTF-8"?>
<svg width="60px" height="60px" viewBox="0 0 60 60" version="1.1" xmlns="http://www.w3.org/2000/svg" xmlns:xlink="http://www.w3.org/1999/xlink">
    <title>eyecatch</title>
    <g id="flow" stroke="none" stroke-width="1" fill="none" fill-rule="evenodd">
        <g id="meguribito_flow" transform="translate(-766.000000, -962.000000)">
            <g id="Group-22" transform="translate(120.000000, 465.000000)">
                <g id="Group-15" transform="translate(630.000000, 486.000000)">
                    <g id="eyecatch" transform="translate(16.000000, 11.000000)">
                        <ellipse id="Oval" fill="#F9F6F3" cx="29.7174374" cy="29.6704016" rx="29.7174374" ry="29.6704016"></ellipse>
                        <g id="calendar-(1)" transform="translate(17.500000, 16.250000)" fill="#4D4327" fill-rule="nonzero">
                            <path d="M24.75,4.5 C24.75,3.395415 23.8976338,2.5 22.8461538,2.5 L22.3701923,2.5 L22.3701923,4 C22.3701923,4.552275 21.9439925,5 21.4182692,5 L20.4663462,5 C20.9920695,5 21.4182692,4.552275 21.4182692,4 L21.4182692,1 C21.4182692,0.447695 20.9920695,0 20.4663462,0 C19.9406228,0 19.5144231,0.447695 19.5144231,1 L19.5144231,2.5 L17.1346154,2.5 L17.1346154,4 C17.1346154,4.552275 16.7084156,5 16.1826923,5 L15.2307692,5 C15.7564925,5 16.1826923,4.552275 16.1826923,4 L16.1826923,1 C16.1826923,0.447695 15.7564925,0 15.2307692,0 C14.7050459,0 14.2788462,0.447695 14.2788462,1 L14.2788462,2.5 L11.4230769,2.5 L11.4230769,4 C11.4230769,4.552275 10.9968772,5 10.4711538,5 L9.51923077,5 C10.0449541,5 10.4711538,4.552275 10.4711538,4 L10.4711538,1 C10.4711538,0.447695 10.0449541,0 9.51923077,0 C8.99350745,0 8.56730769,0.447695 8.56730769,1 L8.56730769,2.5 L6.1875,2.5 L6.1875,4 C6.1875,4.552275 5.76130024,5 5.23557692,5 L4.28365385,5 C4.80937716,5 5.23557692,4.552275 5.23557692,4 L5.23557692,1 C5.23557692,0.447695 4.80937716,0 4.28365385,0 C3.75793053,0 3.33173077,0.447695 3.33173077,1 L3.33173077,2.5 L1.90384615,2.5 C0.852366202,2.5 0,3.395415 0,4.5 L0,7.5 L24.75,7.5 L24.75,4.5 Z" id="Path"></path>
                            <path d="M23.25,18 C20.3505061,18 18,20.3505061 18,23.25 C18,26.1494939 20.3505061,28.5 23.25,28.5 C26.1494939,28.5 28.5,26.1494939 28.5,23.25 C28.5,20.3505061 26.1494939,18 23.25,18 Z M23.25,24.2045455 C23.1277991,24.2045455 23.0119173,24.1794934 22.9045118,24.1376318 L21.1619318,25.5319602 L20.5653409,24.7862216 L22.3096725,23.3910484 C22.3027377,23.3446718 22.2954545,23.2983286 22.2954545,23.25 C22.2954545,22.8975532 22.4886164,22.5931964 22.7727273,22.42785 L22.7727273,19.4318182 L23.7272727,19.4318182 L23.7272727,22.42785 C24.0113836,22.5931964 24.2045455,22.8975484 24.2045455,23.25 C24.2045455,23.7771716 23.7771716,24.2045455 23.25,24.2045455 Z" id="Shape"></path>
                            <path d="M1.90384615,25.5 L17.6103723,25.5 C17.304705,24.7822368 17.1346154,23.9952126 17.1346154,23.1689189 C17.1346154,20.6481251 18.7063879,18.4879496 20.9417556,17.5743243 L18.5625,17.5743243 L18.5625,14.777027 L21.4182692,14.777027 L21.4182692,17.4035074 C22.0184234,17.2134497 22.6573827,17.1081081 23.3221154,17.1081081 C23.814431,17.1081081 24.2908875,17.1703666 24.75,17.2767945 L24.75,8.25 L0,8.25 L0,23.6351351 C0,24.6654543 0.851961635,25.5 1.90384615,25.5 Z M18.5625,9.64864865 L21.4182692,9.64864865 L21.4182692,12.4459459 L18.5625,12.4459459 L18.5625,9.64864865 Z M13.3269231,9.64864865 L16.1826923,9.64864865 L16.1826923,12.4459459 L13.3269231,12.4459459 L13.3269231,9.64864865 Z M13.3269231,14.777027 L16.1826923,14.777027 L16.1826923,17.5743243 L13.3269231,17.5743243 L13.3269231,14.777027 Z M13.3269231,19.9054054 L16.1826923,19.9054054 L16.1826923,22.7027027 L13.3269231,22.7027027 L13.3269231,19.9054054 Z M8.09134615,9.64864865 L10.9471154,9.64864865 L10.9471154,12.4459459 L8.09134615,12.4459459 L8.09134615,9.64864865 Z M8.09134615,14.777027 L10.9471154,14.777027 L10.9471154,17.5743243 L8.09134615,17.5743243 L8.09134615,14.777027 Z M8.09134615,19.9054054 L10.9471154,19.9054054 L10.9471154,22.7027027 L8.09134615,22.7027027 L8.09134615,19.9054054 Z M2.85576923,9.64864865 L5.71153846,9.64864865 L5.71153846,12.4459459 L2.85576923,12.4459459 L2.85576923,9.64864865 Z M2.85576923,14.777027 L5.71153846,14.777027 L5.71153846,17.5743243 L2.85576923,17.5743243 L2.85576923,14.777027 Z M2.85576923,19.9054054 L5.71153846,19.9054054 L5.71153846,22.7027027 L2.85576923,22.7027027 L2.85576923,19.9054054 Z" id="Shape"></path>
                        </g>
                    </g>
                </g>
            </g>
        </g>
    </g>
</svg>