<?xml version="1.0" encoding="UTF-8"?>
<svg width="26px" height="25px" viewBox="0 0 26 25" version="1.1" xmlns="http://www.w3.org/2000/svg" xmlns:xlink="http://www.w3.org/1999/xlink">
    <title>calendar</title>
    <g id="index" stroke="none" stroke-width="1" fill="none" fill-rule="evenodd">
        <g id="sp_hummenu" transform="translate(-29.000000, -171.000000)" fill="#FFFFFF" fill-rule="nonzero">
            <g id="calendar" transform="translate(29.250000, 171.000000)">
                <path d="M22.9166667,2.4872449 L20.8333333,2.4872449 L20.8333333,1.65816327 C20.8333333,0.742384981 20.0871412,0 19.1666667,0 C18.2461921,0 17.5,0.742384981 17.5,1.65816327 L17.5,2.4872449 L14.1666667,2.4872449 L14.1666667,1.65816327 C14.1666667,0.742384981 13.4204746,0 12.5,0 C11.5795254,0 10.8333333,0.742384981 10.8333333,1.65816327 L10.8333333,2.4872449 L7.5,2.4872449 L7.5,1.65816327 C7.5,0.742384981 6.75380792,0 5.83333333,0 C4.91285875,0 4.16666667,0.742384981 4.16666667,1.65816327 L4.16666667,2.4872449 L2.08333333,2.4872449 C0.932740105,2.4872449 0,3.41522612 0,4.55994898 L0,21.1415816 C0,21.6912969 0.219493417,22.2184973 0.610194206,22.6072047 C1.00089499,22.9959122 1.53079898,23.2142857 2.08333333,23.2142857 L13.75,23.2142857 C13.9801186,23.2142857 14.1666667,23.0286895 14.1666667,22.7997449 C14.1666667,22.5708003 13.9801186,22.3852041 13.75,22.3852041 L2.08333333,22.3852041 C1.39383217,22.3831553 0.835392584,21.8275649 0.833333333,21.1415816 L0.833333333,8.29081633 L24.1666667,8.29081633 L24.1666667,15.3380102 C24.1666667,15.5669548 24.3532147,15.752551 24.5833333,15.752551 C24.813452,15.752551 25,15.5669548 25,15.3380102 L25,4.55994898 C25,3.41522612 24.0672599,2.4872449 22.9166667,2.4872449 Z M18.3333333,1.65816327 C18.3333333,1.20027412 18.7064294,0.829081633 19.1666667,0.829081633 C19.626904,0.829081633 20,1.20027412 20,1.65816327 L20,4.14540816 C20,4.60329731 19.626904,4.9744898 19.1666667,4.9744898 C18.7064294,4.9744898 18.3333333,4.60329731 18.3333333,4.14540816 L18.3333333,1.65816327 Z M11.6666667,1.65816327 C11.6666667,1.20027412 12.0397627,0.829081633 12.5,0.829081633 C12.9602373,0.829081633 13.3333333,1.20027412 13.3333333,1.65816327 L13.3333333,4.14540816 C13.3333333,4.60329731 12.9602373,4.9744898 12.5,4.9744898 C12.0397627,4.9744898 11.6666667,4.60329731 11.6666667,4.14540816 L11.6666667,1.65816327 Z M5,1.65816327 C5,1.20027412 5.37309604,0.829081633 5.83333333,0.829081633 C6.29357062,0.829081633 6.66666667,1.20027412 6.66666667,1.65816327 L6.66666667,4.14540816 C6.66666667,4.60329731 6.29357062,4.9744898 5.83333333,4.9744898 C5.37309604,4.9744898 5,4.60329731 5,4.14540816 L5,1.65816327 Z M24.1666667,7.46173469 L0.833333333,7.46173469 L0.833333333,4.55994898 C0.835392584,3.87396568 1.39383217,3.31837527 2.08333333,3.31632653 L4.16666667,3.31632653 L4.16666667,4.14540816 C4.16666667,5.06118645 4.91285875,5.80357143 5.83333333,5.80357143 C6.75380792,5.80357143 7.5,5.06118645 7.5,4.14540816 L7.5,3.31632653 L10.8333333,3.31632653 L10.8333333,4.14540816 C10.8333333,5.06118645 11.5795254,5.80357143 12.5,5.80357143 C13.4204746,5.80357143 14.1666667,5.06118645 14.1666667,4.14540816 L14.1666667,3.31632653 L17.5,3.31632653 L17.5,4.14540816 C17.5,5.06118645 18.2461921,5.80357143 19.1666667,5.80357143 C20.0871412,5.80357143 20.8333333,5.06118645 20.8333333,4.14540816 L20.8333333,3.31632653 L22.9166667,3.31632653 C23.6061678,3.31837527 24.1646074,3.87396568 24.1666667,4.55994898 L24.1666667,7.46173469 Z" id="Shape"></path>
                <path d="M11.9047619,10.9693878 C11.9047619,10.4997579 11.5050161,10.1190476 11.0119048,10.1190476 L9.22619048,10.1190476 C8.73307909,10.1190476 8.33333333,10.4997579 8.33333333,10.9693878 L8.33333333,12.244898 C8.33333333,12.7145278 8.73307909,13.0952381 9.22619048,13.0952381 L11.0119048,13.0952381 C11.5050161,13.0952381 11.9047619,12.7145278 11.9047619,12.244898 L11.9047619,10.9693878 Z M9.22619048,12.244898 L9.22619048,10.9693878 L11.0119048,10.9693878 L11.0119048,12.244898 L9.22619048,12.244898 Z" id="Shape"></path>
                <path d="M6.54761905,10.9693878 C6.54761905,10.4997579 6.14787329,10.1190476 5.6547619,10.1190476 L3.86904762,10.1190476 C3.37593624,10.1190476 2.97619048,10.4997579 2.97619048,10.9693878 L2.97619048,12.244898 C2.97619048,12.7145278 3.37593624,13.0952381 3.86904762,13.0952381 L5.6547619,13.0952381 C6.14787329,13.0952381 6.54761905,12.7145278 6.54761905,12.244898 L6.54761905,10.9693878 Z M3.86904762,12.244898 L3.86904762,10.9693878 L5.6547619,10.9693878 L5.6547619,12.244898 L3.86904762,12.244898 Z" id="Shape"></path>
                <path d="M21.1309524,13.0952381 C21.6240638,13.0952381 22.0238095,12.7145278 22.0238095,12.244898 L22.0238095,10.9693878 C22.0238095,10.4997579 21.6240638,10.1190476 21.1309524,10.1190476 L19.3452381,10.1190476 C18.8521267,10.1190476 18.452381,10.4997579 18.452381,10.9693878 L18.452381,12.244898 C18.452381,12.7145278 18.8521267,13.0952381 19.3452381,13.0952381 L21.1309524,13.0952381 Z M19.3452381,10.9693878 L21.1309524,10.9693878 L21.1309524,12.244898 L19.3452381,12.244898 L19.3452381,10.9693878 Z" id="Shape"></path>
                <path d="M11.9047619,15.1360544 C11.9047619,14.6664245 11.5050161,14.2857143 11.0119048,14.2857143 L9.22619048,14.2857143 C8.73307909,14.2857143 8.33333333,14.6664245 8.33333333,15.1360544 L8.33333333,16.4115646 C8.33333333,16.8811945 8.73307909,17.2619048 9.22619048,17.2619048 L11.0119048,17.2619048 C11.5050161,17.2619048 11.9047619,16.8811945 11.9047619,16.4115646 L11.9047619,15.1360544 Z M9.22619048,16.4115646 L9.22619048,15.1360544 L11.0119048,15.1360544 L11.0119048,16.4115646 L9.22619048,16.4115646 Z" id="Shape"></path>
                <path d="M6.54761905,15.1360544 C6.54761905,14.6664245 6.14787329,14.2857143 5.6547619,14.2857143 L3.86904762,14.2857143 C3.37593624,14.2857143 2.97619048,14.6664245 2.97619048,15.1360544 L2.97619048,16.4115646 C2.97619048,16.8811945 3.37593624,17.2619048 3.86904762,17.2619048 L5.6547619,17.2619048 C6.14787329,17.2619048 6.54761905,16.8811945 6.54761905,16.4115646 L6.54761905,15.1360544 Z M3.86904762,16.4115646 L3.86904762,15.1360544 L5.6547619,15.1360544 L5.6547619,16.4115646 L3.86904762,16.4115646 Z" id="Shape"></path>
                <path d="M11.0119048,17.8571429 L9.22619048,17.8571429 C8.73307909,17.8571429 8.33333333,18.2378531 8.33333333,18.707483 L8.33333333,19.9829932 C8.33333333,20.4526231 8.73307909,20.8333333 9.22619048,20.8333333 L11.0119048,20.8333333 C11.5050161,20.8333333 11.9047619,20.4526231 11.9047619,19.9829932 L11.9047619,18.707483 C11.9047619,18.2378531 11.5050161,17.8571429 11.0119048,17.8571429 Z M9.22619048,19.9829932 L9.22619048,18.707483 L11.0119048,18.707483 L11.0119048,19.9829932 L9.22619048,19.9829932 Z" id="Shape"></path>
                <path d="M13.9880952,13.0952381 L15.7738095,13.0952381 C16.2669209,13.0952381 16.6666667,12.7145278 16.6666667,12.244898 L16.6666667,10.9693878 C16.6666667,10.4997579 16.2669209,10.1190476 15.7738095,10.1190476 L13.9880952,10.1190476 C13.4949839,10.1190476 13.0952381,10.4997579 13.0952381,10.9693878 L13.0952381,12.244898 C13.0952381,12.7145278 13.4949839,13.0952381 13.9880952,13.0952381 Z M13.9880952,10.9693878 L15.7738095,10.9693878 L15.7738095,12.244898 L13.9880952,12.244898 L13.9880952,10.9693878 Z" id="Shape"></path>
                <path d="M13.0952381,16.4115646 C13.0952381,16.8811945 13.4759483,17.2619048 13.9455782,17.2619048 C14.1803932,17.2619048 14.3707483,17.0715496 14.3707483,16.8367347 C14.3707483,16.6019197 14.1803932,16.4115646 13.9455782,16.4115646 L13.9455782,15.1360544 L15.6462585,15.1360544 C15.8810734,15.1360544 16.0714286,14.9456993 16.0714286,14.7108844 C16.0714286,14.4760694 15.8810734,14.2857143 15.6462585,14.2857143 L13.9455782,14.2857143 C13.4759483,14.2857143 13.0952381,14.6664245 13.0952381,15.1360544 L13.0952381,16.4115646 Z" id="Path"></path>
                <path d="M5.6547619,17.8571429 L3.86904762,17.8571429 C3.37593624,17.8571429 2.97619048,18.2378531 2.97619048,18.707483 L2.97619048,19.9829932 C2.97619048,20.4526231 3.37593624,20.8333333 3.86904762,20.8333333 L5.6547619,20.8333333 C6.14787329,20.8333333 6.54761905,20.4526231 6.54761905,19.9829932 L6.54761905,18.707483 C6.54761905,18.2378531 6.14787329,17.8571429 5.6547619,17.8571429 Z M3.86904762,19.9829932 L3.86904762,18.707483 L5.6547619,18.707483 L5.6547619,19.9829932 L3.86904762,19.9829932 Z" id="Shape"></path>
                <path d="M19.6428571,14.2857143 C16.6841888,14.2857143 14.2857143,16.6841888 14.2857143,19.6428571 C14.2857143,22.6015254 16.6841888,25 19.6428571,25 C22.6015254,25 25,22.6015254 25,19.6428571 C24.9965937,16.6856009 22.6001133,14.2891206 19.6428571,14.2857143 L19.6428571,14.2857143 Z M19.6428571,24.1758242 C17.1393686,24.1758242 15.1098901,22.1463457 15.1098901,19.6428571 C15.1098901,17.1393686 17.1393686,15.1098901 19.6428571,15.1098901 C22.1463457,15.1098901 24.1758242,17.1393686 24.1758242,19.6428571 C24.1728722,22.1451219 22.1451219,24.1728722 19.6428571,24.1758242 L19.6428571,24.1758242 Z" id="Shape"></path>
                <path d="M21.9329314,17.968829 L18.7839528,21.0634424 L17.3527829,19.6565829 C17.1939255,19.5058022 16.9414137,19.5079586 16.7852467,19.6614295 C16.6290796,19.8149005 16.6268853,20.0630528 16.7803149,20.2191676 L18.4977188,21.9073193 C18.6558154,22.0626396 18.9120901,22.0626396 19.0701868,21.9073193 L22.5053994,18.5314137 C22.658829,18.3752989 22.6566347,18.1271466 22.5004676,17.9736756 C22.3443006,17.8202047 22.0917888,17.8180483 21.9329314,17.968829 Z" id="Path"></path>
            </g>
        </g>
    </g>
</svg>