<?xml version="1.0" encoding="UTF-8"?>
<svg width="28px" height="26px" viewBox="0 0 28 26" version="1.1" xmlns="http://www.w3.org/2000/svg" xmlns:xlink="http://www.w3.org/1999/xlink">
    <title>Group 8</title>
    <defs>
        <polygon id="path-1" points="0.0400949367 0.0292844551 4.3306962 0.0292844551 4.3306962 4.375 0.0400949367 4.375"></polygon>
    </defs>
    <g id="index" stroke="none" stroke-width="1" fill="none" fill-rule="evenodd">
        <g id="meguribito_index_3" transform="translate(-1376.000000, -30.000000)">
            <g id="HEADER" transform="translate(6.000000, 0.000000)">
                <g id="Group-18" transform="translate(1234.000000, 0.000000)">
                    <g id="Group-25" transform="translate(100.000000, 1.000000)">
                        <g id="Group-8" transform="translate(36.000000, 29.084942)">
                            <path d="M10.2592668,18.9107939 C10.3015335,19.0669567 10.4444066,19.1756757 10.6076825,19.1756757 L23.9314704,19.1756757 C24.130681,19.1756757 24.2922251,19.015653 24.2922251,18.8182649 C24.2922251,18.6209304 24.130681,18.4608541 23.9314704,18.4608541 L10.8844993,18.4608541 L9.6798729,14.0077739 L24.5667147,14.0077739 C24.7659795,14.0077739 24.9274695,13.8478049 24.9274695,13.6504167 C24.9274695,13.4530286 24.7659795,13.293006 24.5667147,13.293006 L9.48661531,13.293006 L8.92583816,11.220538 L25.5907473,11.220538 C25.790012,11.220538 25.9515561,11.0605153 25.9515561,10.8631808 C25.9515561,10.6657927 25.790012,10.50577 25.5907473,10.50577 L8.73258057,10.50577 L8.17185754,8.43298035 L26.6149963,8.43298035 C26.8142069,8.43298035 26.9758051,8.27290406 26.9758051,8.07556955 C26.9758051,7.87818144 26.8142069,7.71815875 26.6149963,7.71815875 L7.97838348,7.71815875 L7.41787693,5.64574438 L27.6392453,5.64574438 C27.8384559,5.64574438 28,5.48566809 28,5.28833358 C28,5.09094547 27.8384559,4.93092279 27.6392453,4.93092279 L7.22445698,4.93092279 L6.17888523,1.06555744 C6.13656447,0.909394604 5.99374543,0.800675676 5.83041544,0.800675676 L0.360808841,0.800675676 C0.161544082,0.800675676 0,0.960698359 0,1.15808647 C0,1.35542098 0.161544082,1.51544366 0.360808841,1.51544366 L5.55365281,1.51544366 L10.2592668,18.9107939 Z" id="Fill-1" fill="#FFFFFF"></path>
                            <path d="M10.3778636,22.2382604 C10.3778636,21.447082 11.0212394,20.8035685 11.8121047,20.8035685 C12.6034219,20.8035685 13.2471364,21.447082 13.2471364,22.2382604 C13.2471364,23.0292129 12.6034219,23.6727264 11.8121047,23.6727264 C11.0212394,23.6727264 10.3778636,23.0292129 10.3778636,22.2382604 M14,22.2382604 C14,21.032096 13.0185048,20.0506757 11.8121047,20.0506757 C10.6061564,20.0506757 9.625,21.032096 9.625,22.2382604 C9.625,23.4444248 10.6061564,24.4256757 11.8121047,24.4256757 C13.0185048,24.4256757 14,23.4444248 14,22.2382604" id="Fill-3" fill="#FFFFFF"></path>
                            <g id="Group-7" transform="translate(21.000000, 20.050676)">
                                <mask id="mask-2" fill="white">
                                    <use xlink:href="#path-1"></use>
                                </mask>
                                <g id="Clip-6"></g>
                                <path d="M2.18528481,3.62710497 C1.4095807,3.62710497 0.778473101,2.98790625 0.778473101,2.20225721 C0.778473101,1.41638381 1.4095807,0.777129006 2.18528481,0.777129006 C2.96121044,0.777129006 3.59231804,1.41638381 3.59231804,2.20225721 C3.59231804,2.98790625 2.96121044,3.62710497 2.18528481,3.62710497 M2.18528481,0.0292844551 C1.00237342,0.0292844551 0.0400949367,1.0041242 0.0400949367,2.20225721 C0.0400949367,3.40033413 1.00237342,4.37500561 2.18528481,4.37500561 C3.36825158,4.37500561 4.3306962,3.40033413 4.3306962,2.20225721 C4.3306962,1.0041242 3.36825158,0.0292844551 2.18528481,0.0292844551" id="Fill-5" fill="#FFFFFF" mask="url(#mask-2)"></path>
                            </g>
                        </g>
                    </g>
                </g>
            </g>
        </g>
    </g>
</svg>