<?xml version="1.0" encoding="UTF-8"?>
<svg width="34px" height="29px" viewBox="0 0 34 29" version="1.1" xmlns="http://www.w3.org/2000/svg" xmlns:xlink="http://www.w3.org/1999/xlink">
    <title>Group 12</title>
    <defs>
        <polygon id="path-1" points="0.0101517378 0.00848627569 23.3503454 0.00848627569 23.3503454 11.6660468 0.0101517378 11.6660468"></polygon>
        <polygon id="path-3" points="0.0032087184 0.00940749782 3.8856952 0.00940749782 3.8856952 3.89189189 0.0032087184 3.89189189"></polygon>
        <polygon id="path-5" points="2.61551874e-05 0.00940749782 3.88251264 0.00940749782 3.88251264 3.89189189 2.61551874e-05 3.89189189"></polygon>
    </defs>
    <g id="index" stroke="none" stroke-width="1" fill="none" fill-rule="evenodd">
        <g id="meguribito_index_3" transform="translate(-1372.000000, -27.000000)">
            <g id="HEADER" transform="translate(6.000000, 0.000000)">
                <g id="Group-18" transform="translate(1234.000000, 0.000000)">
                    <g id="Group-25" transform="translate(100.000000, 1.000000)">
                        <g id="Group-12" transform="translate(33.022355, 27.200000)">
                            <g id="Group-3" transform="translate(7.297297, 5.837838)">
                                <mask id="mask-2" fill="white">
                                    <use xlink:href="#path-1"></use>
                                </mask>
                                <g id="Clip-2"></g>
                                <path d="M21.0524376,3.34857511 L14.9867368,3.34857511 L15.2577066,1.41188731 L21.6943643,1.41188731 L21.0524376,3.34857511 Z M19.8921365,6.84914215 L19.8921365,6.74479825 L14.5115657,6.74479825 L14.7903906,4.75197615 L20.587262,4.75197615 L19.8921365,6.84914215 Z M18.7606983,10.2626566 L14.019368,10.2626566 L14.3152088,8.14819929 L19.4615599,8.14819929 L18.7606983,10.2626566 Z M13.5875071,3.34857511 L8.10226183,3.34857511 L7.83129198,1.41188731 L13.858477,1.41188731 L13.5875071,3.34857511 Z M13.112336,6.74479825 L8.57744363,6.74479825 L8.29861865,4.75197615 L13.3911503,4.75197615 L13.112336,6.74479825 Z M12.6201383,10.2626566 L9.06963062,10.2626566 L8.77378976,8.14819929 L12.9159685,8.14819929 L12.6201383,10.2626566 Z M23.2200359,0.300508259 C23.0898804,0.117166544 22.8805744,0.00848627569 22.657645,0.00848627569 L0.0101517378,0.00848627569 L0.552487408,1.41188731 L6.43205161,1.41188731 L6.70303216,3.34857511 L1.30091855,3.34857511 L1.84326492,4.75197615 L6.89937828,4.75197615 L7.17820327,6.74479825 L2.61339934,6.74479825 L3.15573501,8.14819929 L7.37456009,8.14819929 L7.67040095,10.2626566 L3.97286108,10.2626566 L4.51520745,11.6660468 L19.2588141,11.6660468 C19.5564207,11.6660468 19.8207554,11.4734903 19.9154879,11.1877018 L23.3143081,0.933531521 C23.3852718,0.719455786 23.3503462,0.483860815 23.2200359,0.300508259 L23.2200359,0.300508259 Z" id="Fill-1" stroke="#222222" fill="#FFFFFF" mask="url(#mask-2)"></path>
                            </g>
                            <path d="M25.2618151,21.8918919 L11.0956063,21.8918919 C10.6805364,21.8918919 10.3078565,21.6358667 10.1565372,21.246757 L2.85993036,2.48281897 L0.783957592,2.0051375 C0.241008555,1.88019627 -0.0985306442,1.33582109 0.0255778245,0.789218088 C0.149675551,0.242625905 0.690433111,-0.099169947 1.23338215,0.0257388361 L3.8292827,0.623073185 C4.15455582,0.697921123 4.42199115,0.929894577 4.54363958,1.24268564 L11.7837944,19.8614483 L25.2618151,19.8614483 C25.8187724,19.8614483 26.2702703,20.3159756 26.2702703,20.8766701 C26.2702703,21.4373645 25.8187724,21.8918919 25.2618151,21.8918919" id="Fill-4" stroke="#222222" stroke-width="1.5" fill="#FFFFFF"></path>
                            <g id="Group-8" transform="translate(12.162162, 22.378378)">
                                <mask id="mask-4" fill="white">
                                    <use xlink:href="#path-3"></use>
                                </mask>
                                <g id="Clip-7"></g>
                                <path d="M3.8856952,1.95064551 C3.8856952,0.878523452 3.01656879,0.00940749782 1.94444673,0.00940749782 C0.872335135,0.00940749782 0.0032087184,0.878523452 0.0032087184,1.95064551 C0.0032087184,3.02276757 0.872335135,3.89189398 1.94444673,3.89189398 C3.01656879,3.89189398 3.8856952,3.02276757 3.8856952,1.95064551" id="Fill-6" stroke="#222222" fill="#FFFFFF" mask="url(#mask-4)"></path>
                            </g>
                            <g id="Group-11" transform="translate(20.918919, 22.378378)">
                                <mask id="mask-6" fill="white">
                                    <use xlink:href="#path-5"></use>
                                </mask>
                                <g id="Clip-10"></g>
                                <path d="M3.88251264,1.95064551 C3.88251264,0.878523452 3.01339669,0.00940749782 1.94127463,0.00940749782 C0.869152572,0.00940749782 2.61551874e-05,0.878523452 2.61551874e-05,1.95064551 C2.61551874e-05,3.02276757 0.869152572,3.89189398 1.94127463,3.89189398 C3.01339669,3.89189398 3.88251264,3.02276757 3.88251264,1.95064551" id="Fill-9" stroke="#222222" fill="#FFFFFF" mask="url(#mask-6)"></path>
                            </g>
                        </g>
                    </g>
                </g>
            </g>
        </g>
    </g>
</svg>