<?xml version="1.0" encoding="UTF-8"?>
<svg width="32px" height="28px" viewBox="0 0 32 28" version="1.1" xmlns="http://www.w3.org/2000/svg" xmlns:xlink="http://www.w3.org/1999/xlink">
    <title>Group 8</title>
    <defs>
        <polygon id="path-1" points="0.0434467886 0.0317325736 4.69273324 0.0317325736 4.69273324 4.74074074 0.0434467886 4.74074074"></polygon>
    </defs>
    <g id="index" stroke="none" stroke-width="1" fill="none" fill-rule="evenodd">
        <g id="sp_index" transform="translate(-328.000000, -22.000000)">
            <g id="Group-8" transform="translate(328.000000, 22.000000)">
                <path d="M11.7248764,21.0258062 C11.7731811,21.2071109 11.9364647,21.3333333 12.1230657,21.3333333 L27.3502518,21.3333333 C27.5779211,21.3333333 27.762543,21.1475474 27.762543,20.9183802 C27.762543,20.6892753 27.5779211,20.5034271 27.3502518,20.5034271 L12.4394277,20.5034271 L11.0627119,15.3334111 L28.0762454,15.3334111 C28.3039766,15.3334111 28.4885365,15.1476874 28.4885365,14.9185202 C28.4885365,14.6893531 28.3039766,14.5035671 28.0762454,14.5035671 L10.8418461,14.5035671 L10.2009579,12.0974365 L29.2465683,12.0974365 C29.4742995,12.0974365 29.6589213,11.9116505 29.6589213,11.6825456 C29.6589213,11.4533785 29.4742995,11.2675925 29.2465683,11.2675925 L9.98009208,11.2675925 L9.33926576,8.86108842 L30.4171386,8.86108842 C30.6448079,8.86108842 30.8294916,8.67524021 30.8294916,8.44613529 C30.8294916,8.21696814 30.6448079,8.03118217 30.4171386,8.03118217 L9.11815254,8.03118217 L8.47757363,5.62511378 L31.5877089,5.62511378 C31.8153782,5.62511378 32,5.43926557 32,5.21016066 C32,4.9809935 31.8153782,4.79520753 31.5877089,4.79520753 L8.25652226,4.79520753 L7.06158312,0.307527133 C7.01321654,0.12622243 6.84999478,-7.10542736e-15 6.66333193,-7.10542736e-15 L0.412352962,-7.10542736e-15 C0.184621807,-7.10542736e-15 0,0.185785973 0,0.414953126 C0,0.644058039 0.184621807,0.829844011 0.412352962,0.829844011 L6.34703179,0.829844011 L11.7248764,21.0258062 Z" id="Fill-1" fill="#3F3F3F"></path>
                <path d="M11.4824681,24.8889807 C11.4824681,24.0316615 12.1796287,23.3343516 13.0366087,23.3343516 C13.8940783,23.3343516 14.591606,24.0316615 14.591606,24.8889807 C14.591606,25.7460551 13.8940783,26.443365 13.0366087,26.443365 C12.1796287,26.443365 11.4824681,25.7460551 11.4824681,24.8889807 M15.4074074,24.8889807 C15.4074074,23.5819835 14.3438613,22.5185185 13.0366087,22.5185185 C11.7298457,22.5185185 10.6666667,23.5819835 10.6666667,24.8889807 C10.6666667,26.1959779 11.7298457,27.2592593 13.0366087,27.2592593 C14.3438613,27.2592593 15.4074074,26.1959779 15.4074074,24.8889807" id="Fill-3" fill="#3F3F3F"></path>
                <g id="Group-7" transform="translate(23.703704, 22.518519)">
                    <mask id="mask-2" fill="white">
                        <use xlink:href="#path-1"></use>
                    </mask>
                    <g id="Clip-6"></g>
                    <path d="M2.36797,3.93032327 C1.52741866,3.93032327 0.843551805,3.23768889 0.843551805,2.38636125 C0.843551805,1.5347905 1.52741866,0.842095347 2.36797,0.842095347 C3.20876137,0.842095347 3.89262822,1.5347905 3.89262822,2.38636125 C3.89262822,3.23768889 3.20876137,3.93032327 2.36797,3.93032327 M2.36797,0.0317325736 C1.08616971,0.0317325736 0.0434467886,1.08806686 0.0434467886,2.38636125 C0.0434467886,3.68459487 1.08616971,4.74074682 2.36797,4.74074682 C3.64983029,4.74074682 4.69273324,3.68459487 4.69273324,2.38636125 C4.69273324,1.08806686 3.64983029,0.0317325736 2.36797,0.0317325736" id="Fill-5" fill="#3F3F3F" mask="url(#mask-2)"></path>
                </g>
            </g>
        </g>
    </g>
</svg>