<?xml version="1.0" encoding="UTF-8"?>
<svg width="18px" height="15px" viewBox="0 0 18 15" version="1.1" xmlns="http://www.w3.org/2000/svg" xmlns:xlink="http://www.w3.org/1999/xlink">
    <title>home</title>
    <g id="index" stroke="none" stroke-width="1" fill="none" fill-rule="evenodd">
        <g id="meguribito_index_3" transform="translate(-440.000000, -1833.000000)" fill="#464646" fill-rule="nonzero">
            <g id="PICKUP" transform="translate(0.000000, 866.000000)">
                <g id="pick01" transform="translate(122.000000, 0.000000)">
                    <g id="Group-35" transform="translate(100.000000, 185.000000)">
                        <g id="Group-16" transform="translate(36.916593, 640.000000)">
                            <g id="Group-29" transform="translate(7.000000, 141.000000)">
                                <g id="Group-20" transform="translate(175.000000, 0.000000)">
                                    <g id="home" transform="translate(0.000000, 1.000000)">
                                        <path d="M16.8191973,6.17640466 L8.76094647,0.0880378317 C8.60555613,-0.0293459439 8.39445105,-0.0293459439 8.23912712,0.0880378317 L0.180809883,6.17640466 C-0.0160178803,6.32513875 -0.0587834268,6.61034089 0.0853510742,6.81344977 C0.229485575,7.01655865 0.505901083,7.06062039 0.702695644,6.91195484 L8.5,1.02070092 L16.2973115,6.91192057 C16.3759364,6.97136624 16.4673112,7 16.5578892,7 C16.6938889,7 16.8280957,6.93539048 16.9146229,6.81341551 C17.0587906,6.61034089 17.0160251,6.32513875 16.8191973,6.17640466 Z" id="Path"></path>
                                        <path d="M14.5666428,7 C14.3273582,7 14.1333181,7.18933482 14.1333181,7.42288802 L14.1333181,14.1541604 L10.6667861,14.1541604 L10.6667861,10.4798061 C10.6667861,9.31378844 9.69472911,8.36520703 8.5,8.36520703 C7.30527089,8.36520703 6.3332139,9.31385202 6.3332139,10.4798061 L6.3332139,14.1541922 L2.86664929,14.1541922 L2.86664929,7.42291981 C2.86664929,7.18936661 2.67260923,7 2.43332465,7 C2.19404006,7 2,7.18936661 2,7.42291981 L2,14.577112 C2,14.8106652 2.19404006,15 2.43332465,15 L6.76653854,15 C6.99442242,15 7.18090544,14.8281809 7.19816937,14.6100453 C7.19921172,14.6001589 7.19986319,14.5893507 7.19986319,14.577112 L7.19986319,10.4798379 C7.19986319,9.7801955 7.78309087,9.21101486 8.5,9.21101486 C9.21690913,9.21101486 9.80013681,9.78022729 9.80013681,10.4798379 L9.80013681,14.577112 C9.80013681,14.5892871 9.80078828,14.5999046 9.80183063,14.6096638 C9.81889912,14.8279584 10.0054473,15 10.2334615,15 L14.5666754,15 C14.8059925,15 15,14.8106652 15,14.577112 L15,7.42291981 C15,7.18933482 14.8059599,7 14.5666428,7 Z" id="Path"></path>
                                    </g>
                                </g>
                            </g>
                        </g>
                    </g>
                </g>
            </g>
        </g>
    </g>
</svg>