<?xml version="1.0" encoding="UTF-8"?>
<svg width="25px" height="28px" viewBox="0 0 25 28" version="1.1" xmlns="http://www.w3.org/2000/svg" xmlns:xlink="http://www.w3.org/1999/xlink">
    <title>menu_button</title>
    <g id="index" stroke="none" stroke-width="1" fill="none" fill-rule="evenodd">
        <g id="sp_index" transform="translate(-16.000000, -22.000000)" fill="#FFFFFF" fill-rule="nonzero">
            <g id="menu_button" transform="translate(16.000000, 22.000000)">
                <path d="M6.08388868,26.4845468 C6.23388868,26.4845468 6.38388868,26.3885468 6.38388868,26.2145468 L6.38388868,26.1905468 C6.33588868,25.3325468 6.20388868,23.3465468 6.18588868,22.5665468 C6.17388868,22.1825468 5.90988868,21.9725468 5.63988868,21.9725468 C5.41188868,21.9725468 5.17788868,22.1165468 5.07588868,22.4285468 C4.82388868,23.1845468 4.32588868,24.8705468 4.08588868,25.4885468 C4.06788868,25.5305468 4.04388868,25.5545468 4.01388868,25.5545468 C3.98988868,25.5545468 3.96588868,25.5305468 3.94788868,25.4885468 C3.75588868,25.0325468 3.25188868,23.2265468 2.99388868,22.4405468 C2.89188868,22.1345468 2.66388868,21.9845468 2.44188868,21.9845468 C2.17788868,21.9845468 1.93188868,22.1825468 1.90788868,22.5725468 C1.85988868,23.4485468 1.72188868,25.1765468 1.67988868,26.2325468 L1.67988868,26.2445468 C1.67988868,26.4005468 1.81788868,26.4845468 1.95588868,26.4845468 C2.10588868,26.4845468 2.25588868,26.3945468 2.26188868,26.2265468 C2.29188868,25.3925468 2.38788868,23.4245468 2.42988868,22.8905468 C2.44188868,22.7765468 2.47188868,22.7225468 2.50788868,22.7225468 C2.53788868,22.7225468 2.57988868,22.7705468 2.60388868,22.8485468 C2.83188868,23.5625468 3.40188868,25.5845468 3.59388868,26.0585468 C3.68388868,26.2805468 3.83988868,26.3705468 3.99588868,26.3705468 C4.17588868,26.3705468 4.36188868,26.2445468 4.43388868,26.0525468 C4.69788868,25.3565468 5.30388868,23.4305468 5.47788868,22.8245468 C5.50188868,22.7405468 5.54388868,22.6925468 5.57988868,22.6925468 C5.61588868,22.6925468 5.64588868,22.7405468 5.64588868,22.8425468 C5.64588868,22.8425468 5.71788868,25.3445468 5.77788868,26.2145468 C5.78988868,26.3945468 5.93988868,26.4845468 6.08388868,26.4845468 Z M9.82353941,26.5205468 C10.1715394,26.5205468 10.5195394,26.5145468 10.5975394,26.5085468 C10.8195394,26.4965468 10.9215394,26.3585468 10.9215394,26.2265468 C10.9215394,26.0945468 10.8195394,25.9625468 10.6395394,25.9625468 L10.6155394,25.9625468 C10.5157894,25.9677968 10.2047269,25.9730468 9.89136754,25.9742772 L9.75753941,25.9745468 C8.92353941,25.9745468 8.76753941,25.9625468 8.73153941,25.6505468 C8.72253941,25.5785468 8.71691441,25.4761718 8.71466441,25.0244843 L8.71382066,24.7680546 C8.71363316,24.6718905 8.71353941,24.5645468 8.71353941,24.4445468 C8.71353941,24.3245468 8.73753941,24.3185468 9.43353941,24.3185468 C9.70953941,24.3185468 10.0035394,24.3245468 10.1775394,24.3365468 L10.2015394,24.3365468 C10.3875394,24.3365468 10.4835394,24.1925468 10.4835394,24.0485468 C10.4835394,23.9765468 10.4295394,23.7605468 10.1895394,23.7725468 C10.1243966,23.7759753 10.0024374,23.7774447 9.85612834,23.7780745 L9.11889941,23.7775868 C8.71953941,23.7737468 8.71953941,23.7545468 8.71953941,23.6585468 C8.72553941,23.3105468 8.71953941,22.9445468 8.73153941,22.8005468 C8.74953941,22.5125468 8.88153941,22.5005468 9.49953941,22.5005468 C9.83826669,22.5005468 10.2693741,22.5045633 10.4182291,22.5060239 L10.4715394,22.5065468 L10.4715394,22.5065468 C10.6695394,22.5065468 10.7775394,22.3685468 10.7775394,22.2305468 C10.7775394,22.1045468 10.6815394,21.9785468 10.4895394,21.9665468 C10.3995394,21.9605468 10.0695394,21.9545468 9.73353941,21.9545468 C9.39753941,21.9545468 9.05553941,21.9605468 8.94753941,21.9665468 C8.47353941,21.9905468 8.18553941,22.2305468 8.17353941,22.6805468 C8.16273941,23.0207468 8.15679941,23.7108668 8.15571941,24.3747428 L8.15553941,24.5945468 C8.15553941,25.0745468 8.15553941,25.5185468 8.16753941,25.7705468 C8.18553941,26.2505468 8.50353941,26.4665468 9.04953941,26.5085468 C9.12753941,26.5145468 9.47553941,26.5205468 9.82353941,26.5205468 Z M15.5551901,26.4965468 C15.8191901,26.4965468 16.0651901,26.3045468 16.0651901,25.9745468 L16.0651901,25.9625468 C16.0531901,25.3865468 16.0411901,24.4925468 16.0411901,23.6585468 C16.0411901,23.1365468 16.0471901,22.6325468 16.0591901,22.2605468 L16.0591901,22.2485468 C16.0591901,22.0685468 15.9091901,21.9785468 15.7531901,21.9785468 C15.5971901,21.9785468 15.4531901,22.0745468 15.4591901,22.2605468 C15.4759901,22.7813468 15.4927901,24.5513201 15.4949555,25.2630677 L15.4951901,25.3985468 C15.4951901,25.5425468 15.4951901,25.6625468 15.4471901,25.6625468 C15.4171901,25.6625468 15.3811901,25.6325468 15.3451901,25.5725468 C14.8951901,24.8825468 13.8151901,22.8905468 13.4371901,22.2845468 C13.3171901,22.0925468 13.0951901,21.9785468 12.8911901,21.9785468 C12.6511901,21.9785468 12.4291901,22.1405468 12.4291901,22.5305468 L12.4291901,22.5485468 C12.4411901,23.0705468 12.4471901,23.7545468 12.4471901,24.4505468 C12.4471901,25.0565468 12.4411901,25.6745468 12.4291901,26.2205468 L12.4291901,26.2265468 C12.4291901,26.3945468 12.5791901,26.4785468 12.7291901,26.4785468 C12.8791901,26.4845468 13.0231901,26.4005468 13.0231901,26.2325468 L13.0231901,26.2205468 C13.0148825,25.9380852 13.0078529,25.4217302 13.0026913,24.8773551 L12.9981742,24.331265 C12.9956071,23.9711449 12.9939576,23.6290711 12.9934004,23.3660434 L12.9931901,23.1845468 C12.9931901,22.7885468 12.9931901,22.7285468 13.0471901,22.7285468 C13.0831901,22.7285468 13.1251901,22.7885468 13.1551901,22.8425468 C13.4791901,23.3945468 14.6611901,25.5485468 15.0811901,26.2205468 C15.2011901,26.4125468 15.3811901,26.4965468 15.5551901,26.4965468 Z M19.6908409,26.5265468 C20.5848409,26.5265468 21.4848409,25.8905468 21.4608409,24.6365468 C21.4548409,24.2525468 21.4488409,23.9165468 21.4488409,23.5685468 C21.4488409,23.1725468 21.4548409,22.7645468 21.4668409,22.2605468 L21.4668409,22.2485468 C21.4668409,22.0745468 21.3168409,21.9845468 21.1668409,21.9845468 C20.9448409,21.9845468 20.8668409,22.1345468 20.8728409,22.2605468 C20.8788409,22.5245468 20.8788409,22.7885468 20.8788409,23.0585468 C20.8788409,23.5925468 20.8728409,24.1325468 20.8728409,24.6605468 C20.8728409,25.5185468 20.2668409,25.9565468 19.6728409,25.9565468 C19.0968409,25.9565468 18.5268409,25.5425468 18.5268409,24.6965468 L18.5268409,24.3965468 C18.5268409,23.9165468 18.5208409,23.4305468 18.5208409,22.9445468 C18.5208409,22.7165468 18.5208409,22.4885468 18.5268409,22.2605468 L18.5268409,22.2485468 C18.5268409,22.0745468 18.3828409,21.9845468 18.2328409,21.9845468 C18.0168409,21.9845468 17.9328409,22.1525468 17.9388409,22.2605468 C17.9448409,22.5665468 17.9508409,22.8845468 17.9508409,23.1965468 C17.9508409,23.6885468 17.9448409,24.1865468 17.9388409,24.6605468 L17.9388409,24.6905468 C17.9388409,25.9205468 18.8148409,26.5265468 19.6908409,26.5265468 Z" id="MENU"></path>
                <rect id="Rectangle" x="0.0227273919" y="0" width="24.5454565" height="1"></rect>
                <rect id="Rectangle" x="0.0227273919" y="4.9090913" width="24.5454565" height="1"></rect>
                <rect id="Rectangle" x="0.0227273919" y="9.8181826" width="18.4090924" height="1"></rect>
            </g>
        </g>
    </g>
</svg>