<?xml version="1.0" encoding="UTF-8"?>
<svg width="15px" height="19px" viewBox="0 0 15 19" version="1.1" xmlns="http://www.w3.org/2000/svg" xmlns:xlink="http://www.w3.org/1999/xlink">
    <title>pin</title>
    <g id="index" stroke="none" stroke-width="1" fill="none" fill-rule="evenodd">
        <g id="meguribito_index_3" transform="translate(-265.000000, -1833.000000)" fill="#646464" fill-rule="nonzero">
            <g id="PICKUP" transform="translate(0.000000, 866.000000)">
                <g id="pick01" transform="translate(122.000000, 0.000000)">
                    <g id="Group-35" transform="translate(100.000000, 185.000000)">
                        <g id="Group-16" transform="translate(36.916593, 640.000000)">
                            <g id="Group-29" transform="translate(7.000000, 141.000000)">
                                <g id="pin" transform="translate(0.000000, 1.000000)">
                                    <path d="M7,0 C3.14011765,0 0,3.14850065 0,7.01868753 C0,8.29278575 0.569882353,9.66308127 0.593764706,9.72088223 C0.777823529,10.1589309 1.141,10.8393307 1.40288235,11.2381573 L6.20241176,18.5297479 C6.39882353,18.8286615 6.68952941,19 7,19 C7.31047059,19 7.60117647,18.8286615 7.79758824,18.5301608 L12.5975294,11.2381573 C12.8598235,10.8393307 13.2225882,10.1589309 13.4066471,9.72088223 C13.4305294,9.66349413 14,8.29319861 14,7.01868753 C14,3.14850065 10.8598824,0 7,0 Z M12.6473529,9.40049978 C12.4830588,9.79313342 12.145,10.4260539 11.9098824,10.7835941 L7.10994118,18.0755976 C7.01523529,18.2196871 6.98517647,18.2196871 6.89047059,18.0755976 L2.09052941,10.7835941 C1.85541176,10.4260539 1.51735294,9.79272056 1.35305882,9.40008692 C1.34605882,9.3831595 0.823529412,8.12186006 0.823529412,7.01868753 C0.823529412,3.60388961 3.59429412,0.825727944 7,0.825727944 C10.4057059,0.825727944 13.1764706,3.60388961 13.1764706,7.01868753 C13.1764706,8.12351152 12.6527059,9.38811386 12.6473529,9.40049978 Z" id="Shape"></path>
                                    <path d="M7.00340728,4 C5.07335172,4 3.50340728,5.57033333 3.50340728,7.5 C3.50340728,9.42966667 5.07335172,11 7.00340728,11 C8.93346283,11 10.5034073,9.42966667 10.5034073,7.5 C10.5034073,5.57033333 8.93346283,4 7.00340728,4 Z M7.00340728,10.2222222 C5.50268505,10.2222222 4.28118505,9.00111111 4.28118505,7.5 C4.28118505,5.99888889 5.50268505,4.77777778 7.00340728,4.77777778 C8.5041295,4.77777778 9.7256295,5.99888889 9.7256295,7.5 C9.7256295,9.00111111 8.5041295,10.2222222 7.00340728,10.2222222 Z" id="Shape"></path>
                                </g>
                            </g>
                        </g>
                    </g>
                </g>
            </g>
        </g>
    </g>
</svg>