<?xml version="1.0" encoding="UTF-8"?>
<svg width="24px" height="24px" viewBox="0 0 24 24" version="1.1" xmlns="http://www.w3.org/2000/svg" xmlns:xlink="http://www.w3.org/1999/xlink">
    <title>pop_close</title>
    <g id="detail" stroke="none" stroke-width="1" fill="none" fill-rule="evenodd">
        <g id="meguribito_flow01" transform="translate(-50.000000, -47.000000)" fill="#ACACAC" fill-rule="nonzero">
            <g id="pop_close" transform="translate(50.000000, 47.000000)">
                <path d="M22.48599,24 C22.0866389,24.0024791 21.7041693,23.8390815 21.4299507,23.5487886 L0.433969841,2.56993437 C-0.144656614,1.97553995 -0.144656614,1.02852689 0.433969841,0.434132466 C1.02925491,-0.144710822 1.97716431,-0.144710822 2.57244937,0.434132466 L23.5660302,21.420186 C24.1446566,22.0145805 24.1446566,22.9615935 23.5660302,23.5559879 C23.2804591,23.8432997 22.8910933,24.0033515 22.48599,24 Z" id="パス_172"></path>
                <path d="M1.49122289,24 C1.09230453,24.001445 0.710279925,23.8375685 0.434460939,23.5466729 C-0.144820313,22.9538883 -0.144820313,22.0013504 0.434460939,21.4085658 L21.4255961,0.434753269 C22.0233126,-0.144917756 22.9678225,-0.144917756 23.5655391,0.434753269 C24.1448203,1.02753788 24.1448203,1.98007576 23.5655391,2.57286037 L2.56239524,23.5466729 C2.27945781,23.8358232 1.89386512,23.9990051 1.49122289,24 Z" id="パス_173"></path>
            </g>
        </g>
    </g>
</svg>